<?xml version="1.0" encoding="UTF-8"?>
<svg id="Layer_2" data-name="Layer 2" xmlns="http://www.w3.org/2000/svg" viewBox="0 0 982.35 982.35">
  <defs>
    <style>
      .cls-1 {
        fill: #151e30;
      }

      .cls-2 {
        fill: #dbb071;
      }
    </style>
  </defs>
  <g id="Layer_1-2" data-name="Layer 1">
    <circle class="cls-1" cx="491.17" cy="491.17" r="491.17"/>
    <g id="DESERT_SAND" data-name="DESERT SAND">
      <path class="cls-2" d="M559.73,282.55s-9.48,33.83-26.95,44.11c-11.18,6.58-16.43-4.54-19.01-11.58-16.06-47.48-2.4-102.44,19.56-147.14l-43-101.42-52.06,134.73s7.01-8.65,10.72-12.06c13.88-12.77,28.55-20.13,28.55-20.13,0,0-14.57,21.88-18.96,29.36-17.91,30.55-27.5,64.34-34.7,97.61-8.12,38.54-13.29,78.99-4.24,117.54-46.69,38.4-92.1,79.14-124.95,126.18-17.16,24.33-47.8,74.6-14.21,97.31,39.87,27.26,118.86-13.19,153.93-32.24,2.03-1.03,13.66-7.47,13.66-7.47l42.27,318.47,18.09-158.43c8.86-60.67,28.98-216.61,28.98-216.61,49.65-38.98,82.87-69.47,121.63-115.63,5.54-6.6,16.62-19.47,21.59-26.23,7.74-10.51,21.35-32.43,26.76-43.82,7.01-14.75,22.52-55.84-12.37-62.29-22.7-4.25-67.37,12.02-74.01,14.51,4.24-1.03,21.41-5.57,30.45-7.33,57.22-11.58,71.24,10.84,51.31,50.71-7.94,16.12-22.43,34.71-31.38,45.58-6.88,8.36-21.04,24.77-28.42,32.98-25.84,28.87-70.67,68.4-98.93,87.35-1.16.78-4.98,2.78-4.98,2.78,0,0,19.08-113.27,22.52-151.25,4.08-45.08-1.85-85.59-1.85-85.59ZM394.55,600.43c-20.12,7.91-64.41,23.3-83.05,7.77-21.23-17.73,7.57-60.38,20.12-77.82,25.29-35.32,57.59-67.42,90.81-98.19l21.78,144.21c-16.06,8.65-32.3,17.15-49.65,24.04Z"/>
    </g>
  </g>
</svg>