<?xml version="1.0" encoding="UTF-8" standalone="no"?>
<!DOCTYPE svg PUBLIC "-//W3C//DTD SVG 1.1//EN" "http://www.w3.org/Graphics/SVG/1.1/DTD/svg11.dtd">
<svg width="100%" height="100%" viewBox="0 0 244 278" version="1.1" xmlns="http://www.w3.org/2000/svg" xmlns:xlink="http://www.w3.org/1999/xlink" xml:space="preserve" xmlns:serif="http://www.serif.com/" style="fill-rule:evenodd;clip-rule:evenodd;stroke-linejoin:round;stroke-miterlimit:2;">
    <g>
        <g>
            <path d="M1.1,255.3C15.3,219.3 22.9,179.9 22.9,138.9C22.9,97.9 15.4,58.5 1.1,22.5C0.4,20.7 0,18.6 0,16.5C0,8 6.6,0 16,0C22,0 27.7,3.7 30,9.4C45.6,49.5 54.3,93.1 54.3,138.9C54.3,184.5 45.6,228.3 30,268.4C27.7,274.1 22,277.8 16,277.8C6.6,277.8 -0,269.8 -0,261.3C0,259.2 0.5,257.2 1.1,255.3Z" style="fill-rule:nonzero;"/>
            <path d="M75.9,226.2C82.3,198.2 85.8,168.9 85.8,138.9C85.8,108.9 82.4,79.5 75.9,51.4C75.7,50.3 75.4,48.9 75.4,47.7C75.4,39 82.3,31.4 91.4,31.4C98.3,31.4 104.5,36.2 106.1,43.1C113.4,73.8 117.3,105.9 117.3,138.9C117.3,171.9 113.4,204 106.1,234.7C104.5,241.6 98.3,246.4 91.4,246.4C82.2,246.4 75.4,238.6 75.4,229.9C75.4,228.7 75.6,227.4 75.9,226.2Z" style="fill-rule:nonzero;"/>
            <path d="M148.7,138.9C148.7,124.5 148,110.5 146.6,96.5C145.7,86.9 153,78.6 162.4,78.6C170.4,78.6 177.1,84.6 177.8,92.4C179.4,107.8 180.1,123.1 180.1,138.9C180.1,154.5 179.4,170.1 177.8,185.4C177.1,193.2 170.5,199.2 162.4,199.2C153,199.2 145.7,190.7 146.6,181.3C148,167.3 148.7,153.1 148.7,138.9Z" style="fill-rule:nonzero;"/>
            <path d="M243.2,138.9C243.2,142.8 241.6,146.9 238.6,149.9L229.4,159.1C227.3,161.2 224.6,162.1 222.1,162.1C216.8,162.1 211.6,158 211.6,151.6L211.6,126.4C211.6,120 216.9,115.9 222.1,115.9C224.6,115.9 227.4,116.8 229.4,118.9L238.6,127.8C241.6,130.6 243.2,134.8 243.2,138.9Z" style="fill-rule:nonzero;"/>
        </g>
    </g>
</svg>
