<svg xmlns="http://www.w3.org/2000/svg" width="944.81" height="1079.22">
  <path d="M4.27 991.81c55.17-139.86 84.69-292.92 84.69-452.2S59.83 227.27 4.27 87.41C1.55 80.42 0 72.26 0 64.1 0 31.08 25.64 0 62.16 0c23.31 0 45.45 14.37 54.39 36.52 60.6 155.78 94.4 325.17 94.4 503.09s-33.8 347.31-94.4 503.09c-8.94 22.14-31.08 36.52-54.39 36.52-36.52 0-62.16-31.08-62.16-64.1 0-8.16 1.94-15.93 4.27-23.31Zm290.59-113.05c24.86-108.78 38.46-222.6 38.46-339.15s-13.21-230.76-38.46-339.93c-.78-4.27-1.94-9.71-1.94-14.37 0-33.8 26.81-63.32 62.16-63.32 26.81 0 50.89 18.65 57.11 45.45 28.36 119.27 43.51 243.97 43.51 372.17s-15.15 252.91-43.51 372.17c-6.22 26.81-30.3 45.45-57.11 45.45-35.74 0-62.16-30.3-62.16-64.1 0-4.66.78-9.71 1.94-14.37Zm282.82-339.15c0-55.94-2.72-110.33-8.16-164.72-3.5-37.29 24.86-69.54 61.38-69.54 31.08 0 57.11 23.31 59.83 53.61 6.22 59.83 8.94 119.27 8.94 180.65s-2.72 121.21-8.94 180.65c-2.72 30.3-28.36 53.61-59.83 53.61-36.52 0-64.88-33.02-61.38-69.54 5.44-54.39 8.16-109.55 8.16-164.72Zm367.13 0c0 15.15-6.22 31.08-17.87 42.73l-35.74 35.74c-8.16 8.16-18.65 11.65-28.36 11.65-20.59 0-40.79-15.93-40.79-40.79v-97.9c0-24.86 20.59-40.79 40.79-40.79 9.71 0 20.59 3.5 28.36 11.65l35.74 34.58c11.65 10.88 17.87 27.19 17.87 43.12Z"/>
</svg>
