<?xml version="1.0" encoding="UTF-8"?>
<svg id="Layer_2" data-name="Layer 2" xmlns="http://www.w3.org/2000/svg" viewBox="0 0 996.86 413.08">
  <defs>
    <style>
      .cls-1 {
        fill: #dbaf71;
      }

      .cls-2, .cls-3 {
        fill: #dbb071;
      }

      .cls-3 {
        font-family: MyriadPro-Regular, 'Myriad Pro';
        font-size: 21.2px;
      }
    </style>
  </defs>
  <g id="Layer_2-2" data-name="Layer 2">
    <g id="DESERT_SAND" data-name="DESERT SAND">
      <path id="MARK" class="cls-1" d="M143.15,105.07s-4.61,16.45-13.11,21.46c-5.44,3.2-7.99-2.21-9.25-5.63-7.81-23.1-1.17-49.83,9.52-71.57L109.4,0l-25.32,65.53s3.41-4.21,5.21-5.86c6.75-6.21,13.89-9.79,13.89-9.79,0,0-7.09,10.64-9.22,14.28-8.71,14.86-13.38,31.29-16.88,47.47-3.95,18.75-6.46,38.42-2.06,57.17-22.71,18.68-44.79,38.49-60.77,61.37-8.35,11.83-23.25,36.28-6.91,47.33,19.39,13.26,57.81-6.42,74.87-15.68.99-.5,6.64-3.64,6.64-3.64l20.56,154.9,8.8-77.06c4.31-29.51,14.09-105.35,14.09-105.35,24.15-18.96,40.31-33.79,59.16-56.24,2.69-3.21,8.08-9.47,10.5-12.76,3.76-5.11,10.39-15.77,13.02-21.31,3.41-7.17,10.95-27.16-6.01-30.29-11.04-2.07-32.77,5.85-36,7.06,2.06-.5,10.41-2.71,14.81-3.56,27.83-5.63,34.65,5.27,24.96,24.66-3.86,7.84-10.91,16.88-15.26,22.17-3.35,4.07-10.23,12.05-13.82,16.04-12.57,14.04-34.37,33.27-48.12,42.48-.57.38-2.42,1.35-2.42,1.35,0,0,9.28-55.09,10.95-73.56,1.98-21.93-.9-41.63-.9-41.63ZM62.81,259.68c-9.79,3.85-31.33,11.33-40.4,3.78-10.32-8.63,3.68-29.37,9.78-37.85,12.3-17.18,28.01-32.79,44.17-47.76l10.59,70.14c-7.81,4.21-15.71,8.34-24.15,11.69Z"/>
      <g id="TITLE">
        <polyline class="cls-2" points="382.78 191.78 382.78 327.15 355.55 327.15 355.55 191.78"/>
        <path class="cls-2" d="M436.68,235.3l38.87,57.66-14.93,27.72-70.45-109.57h24.93c30.67,0,45.44-16.81,45.44-38.38s-14.11-37.48-39.2-37.48h-38.55v23.13h-27.23v-49.37h65.45c21.57,0,38.14,6.48,49.86,19.19,11.81,12.63,17.71,27.72,17.71,45.11,0,14.52-4.43,27.47-13.53,39.28-9.19,11.81-21.9,19.52-38.38,22.72Z"/>
        <polygon class="cls-2" points="443.19 86.84 332.12 86.84 332.12 162.71 418.65 162.71 418.82 187.33 332.12 187.31 332.12 278.76 304.89 278.76 304.89 60.6 443.1 60.6 443.19 86.84"/>
        <polygon class="cls-2" points="538.36 243.01 585.53 243.01 585.53 269.01 525.14 269.01 495.62 327.15 463.05 327.15 585.53 102.14 585.53 149.75 538.36 243.01"/>
        <path class="cls-2" d="M751.18,327.15l-103.95-129.16-30.11,35.72v93.44h-27.16V102.14h27.16v95.55l76.76-88.71h32.48l-61.12,70.7,120.16,147.46h-34.21Z"/>
        <path class="cls-2" d="M789.82,135.55h-80.61l22.89-26.57h164.73v26.57h-79.55v191.59h-27.46v-191.59Z"/>
        <path class="cls-2" d="M840.67,353.71v-213.72h27.16v187.16h91.15v26.57h-118.31Z"/>
        <polygon class="cls-2" points="355.57 109 355.57 135.24 355.48 109 355.57 109"/>
        <text class="cls-3" transform="translate(969.29 354.54)"><tspan x="0" y="0">TM</tspan></text>
      </g>
    </g>
  </g>
</svg>