<?xml version="1.0" encoding="UTF-8" standalone="no"?>
<svg 
    role="img" 
    xmlns="http://www.w3.org/2000/svg" 
    width="1000mm"
    height="1000mm"
    viewBox="0 0 1000 1000"
    style="max-width:1.6em; height: auto;">
    
    <path 
        id="path" 
        style="opacity:1;vector-effect:none;fill:#000000;fill-opacity:1;"
        d=" M 265 142C 474 144 682 143 891 143C 905 143 917 143 928 146C 955 153 969 174 970 200C 970 212 968 224 964 238C 926 412 888 587 849 761C 841 795 832 821 810 838C 788 855 761 858 725 858C 625 858 524 858 423 858C 319 858 215 858 110 858C 96 858 84 857 73 854C 46 846 31 826 30 800C 30 788 32 776 36 762C 76 584 118 407 157 230C 163 203 173 180 192 164C 216 148 221 142 265 142C 265 142 265 142 265 142M 224 202C 217 209 210 220 206 241C 166 418 125 596 84 773C 78 805 83 807 111 808C 215 808 319 808 423 808C 524 808 625 808 725 808C 758 808 773 804 780 799C 787 793 793 781 800 750C 839 576 878 402 916 228C 916 228 916 228 916 228C 923 201 918 193 891 193C 672 194 450 191 263 192C 243 192 232 196 224 202C 224 202 224 202 224 202M 419 284C 419 284 594 484 594 484C 603 494 602 511 590 520C 590 520 290 745 290 745C 279 754 263 751 255 740C 246 729 249 713 260 705C 260 705 538 496 538 496C 538 496 381 316 381 316C 375 309 373 299 377 290C 381 281 389 275 399 275C 407 274 414 278 419 284C 419 284 419 284 419 284M 625 675C 639 675 650 686 650 700C 650 714 639 725 625 725C 625 725 475 725 475 725C 461 725 450 714 450 700C 450 686 461 675 475 675C 475 675 625 675 625 675"
        transform="">
    </path>    
</svg>